<?xml version="1.0" encoding="UTF-8" standalone="no"?>
<!DOCTYPE svg PUBLIC "-//W3C//DTD SVG 1.1//EN" "http://www.w3.org/Graphics/SVG/1.1/DTD/svg11.dtd">
<svg width="100%" height="100%" viewBox="0 0 1566 318" version="1.1" xmlns="http://www.w3.org/2000/svg" xmlns:xlink="http://www.w3.org/1999/xlink" xml:space="preserve" xmlns:serif="http://www.serif.com/" style="fill-rule:evenodd;clip-rule:evenodd;stroke-linejoin:round;stroke-miterlimit:2;">
    <g transform="matrix(1,0,0,1,-719.417112,-231.23254)">
        <g transform="matrix(5.555556,0,0,5.555556,673.461389,223.231612)">
            <g>
                <g>
                    <g transform="matrix(1,0,0,1,0.61578,57.799542)">
                        <g>
                            <rect x="7.656" y="-38.641" width="7.078" height="38.641" style="fill-rule:nonzero;"/>
                        </g>
                    </g>
                </g>
                <g>
                    <g transform="matrix(1,0,0,1,22.999205,57.799542)">
                        <g>
                            <path d="M11.828,-48.312L11.828,-38.641L25.688,-38.641L25.688,-31.891L11.828,-31.891L11.828,-11.359C11.828,-9.691 12.254,-8.508 13.109,-7.812C13.973,-7.113 15.238,-6.766 16.906,-6.766L25.688,-6.766L25.688,0L15.938,0C12.395,0 9.645,-1.113 7.688,-3.344C5.727,-5.57 4.75,-8.535 4.75,-12.234L4.75,-48.312L11.828,-48.312Z" style="fill-rule:nonzero;"/>
                        </g>
                    </g>
                </g>
                <g>
                    <g transform="matrix(1,0,0,1,49.811011,57.799542)">
                        <g>
                            <path d="M10.312,-56.359L10.312,-21.344C10.312,-18.977 10.602,-16.852 11.188,-14.969C11.781,-13.094 12.613,-11.484 13.688,-10.141C14.758,-8.797 16.062,-7.758 17.594,-7.031C19.125,-6.312 20.828,-5.953 22.703,-5.953C24.523,-5.953 26.227,-6.273 27.812,-6.922C29.395,-7.566 30.766,-8.477 31.922,-9.656C33.078,-10.844 33.977,-12.266 34.625,-13.922C35.27,-15.586 35.594,-17.414 35.594,-19.406C35.594,-23.426 34.438,-26.645 32.125,-29.062C29.812,-31.477 26.723,-32.688 22.859,-32.688C21.254,-32.688 19.535,-32.348 17.703,-31.672C15.879,-31.004 14.352,-30.219 13.125,-29.312L13.125,-36.719C14.895,-37.688 16.676,-38.383 18.469,-38.812C20.27,-39.238 22.141,-39.453 24.078,-39.453C26.547,-39.453 28.906,-38.953 31.156,-37.953C33.414,-36.961 35.391,-35.609 37.078,-33.891C38.766,-32.18 40.117,-30.156 41.141,-27.812C42.16,-25.477 42.672,-22.973 42.672,-20.297C42.672,-17.336 42.203,-14.566 41.266,-11.984C40.328,-9.41 38.984,-7.188 37.234,-5.312C35.492,-3.438 33.391,-1.945 30.922,-0.844C28.453,0.258 25.711,0.812 22.703,0.812C19.805,0.812 17.16,0.289 14.766,-0.75C12.379,-1.801 10.328,-3.266 8.609,-5.141C6.891,-7.023 5.562,-9.242 4.625,-11.797C3.688,-14.348 3.219,-17.125 3.219,-20.125L3.219,-56.359L10.312,-56.359Z" style="fill-rule:nonzero;"/>
                        </g>
                    </g>
                </g>
                <g transform="matrix(1,0,0,1,94.577902,57.799542)">
                    <g>
                        <rect x="7.656" y="-38.641" width="7.078" height="38.641" style="fill-rule:nonzero;"/>
                    </g>
                </g>
                <g>
                    <g transform="matrix(1,0,0,1,116.961327,57.799542)">
                        <g>
                            <path d="M21.734,-38.641C23.992,-38.641 25.766,-38.18 27.047,-37.266C28.336,-36.359 28.984,-35.102 28.984,-33.5C28.984,-31.664 28.609,-30.297 27.859,-29.391L9.344,-6.766L29.312,-6.766L29.312,0L7.078,0C5.523,0 4.195,-0.414 3.094,-1.25C2,-2.082 1.453,-3.359 1.453,-5.078C1.453,-5.555 1.488,-6.023 1.562,-6.484C1.645,-6.941 1.832,-7.461 2.125,-8.047C2.426,-8.641 2.844,-9.312 3.375,-10.062C3.914,-10.812 4.645,-11.75 5.562,-12.875L21.094,-31.891L2.812,-31.891L2.812,-38.641L21.734,-38.641Z" style="fill-rule:nonzero;"/>
                        </g>
                    </g>
                </g>
                <g>
                    <g transform="matrix(1,0,0,1,148.282048,57.799542)">
                        <g>
                            <path d="M42.438,-19.328C42.438,-16.422 41.91,-13.734 40.859,-11.266C39.816,-8.797 38.379,-6.676 36.547,-4.906C34.723,-3.133 32.602,-1.738 30.188,-0.719C27.77,0.301 25.172,0.812 22.391,0.812C19.648,0.812 17.055,0.316 14.609,-0.672C12.172,-1.672 10.051,-3.055 8.25,-4.828C6.457,-6.598 5.02,-8.719 3.938,-11.188C2.863,-13.656 2.328,-16.367 2.328,-19.328C2.328,-22.273 2.879,-24.984 3.984,-27.453C5.086,-29.922 6.551,-32.039 8.375,-33.812C10.195,-35.582 12.316,-36.961 14.734,-37.953C17.148,-38.953 19.703,-39.453 22.391,-39.453C25.117,-39.453 27.703,-38.941 30.141,-37.922C32.586,-36.898 34.723,-35.488 36.547,-33.688C38.379,-31.895 39.816,-29.773 40.859,-27.328C41.91,-24.891 42.438,-22.223 42.438,-19.328ZM22.391,-5.953C24.316,-5.953 26.055,-6.285 27.609,-6.953C29.172,-7.629 30.5,-8.555 31.594,-9.734C32.695,-10.922 33.547,-12.332 34.141,-13.969C34.734,-15.602 35.031,-17.391 35.031,-19.328C35.031,-21.254 34.734,-23.035 34.141,-24.672C33.547,-26.316 32.688,-27.727 31.562,-28.906C30.438,-30.082 29.094,-31.004 27.531,-31.672C25.977,-32.348 24.234,-32.688 22.297,-32.688C20.473,-32.688 18.797,-32.363 17.266,-31.719C15.734,-31.07 14.406,-30.16 13.281,-28.984C12.156,-27.805 11.285,-26.395 10.672,-24.75C10.055,-23.113 9.75,-21.305 9.75,-19.328C9.75,-17.285 10.066,-15.445 10.703,-13.812C11.348,-12.176 12.234,-10.766 13.359,-9.578C14.492,-8.398 15.82,-7.5 17.344,-6.875C18.875,-6.258 20.555,-5.953 22.391,-5.953Z" style="fill-rule:nonzero;"/>
                        </g>
                    </g>
                </g>
                <g>
                    <g transform="matrix(1,0,0,1,193.048938,57.799542)">
                        <g>
                            <path d="M36.641,0L29.547,0L29.547,-22.781C29.547,-24.07 29.301,-25.32 28.812,-26.531C28.332,-27.738 27.676,-28.797 26.844,-29.703C26.02,-30.617 25.031,-31.344 23.875,-31.875C22.719,-32.414 21.469,-32.688 20.125,-32.688C18.844,-32.688 17.625,-32.43 16.469,-31.922C15.312,-31.41 14.301,-30.695 13.438,-29.781C12.582,-28.875 11.91,-27.816 11.422,-26.609C10.941,-25.398 10.703,-24.125 10.703,-22.781L10.703,0L3.625,0L3.625,-22.703C3.625,-25.066 4.008,-27.27 4.781,-29.312C5.562,-31.352 6.676,-33.125 8.125,-34.625C9.582,-36.125 11.328,-37.301 13.359,-38.156C15.398,-39.02 17.656,-39.453 20.125,-39.453C22.594,-39.453 24.832,-39.02 26.844,-38.156C28.863,-37.301 30.598,-36.125 32.047,-34.625C33.492,-33.125 34.617,-31.363 35.422,-29.344C36.234,-27.332 36.641,-25.172 36.641,-22.859L36.641,0Z" style="fill-rule:nonzero;"/>
                        </g>
                    </g>
                </g>
                <g>
                    <g transform="matrix(1,0,0,1,233.306914,57.799542)">
                        <g>
                            <path d="M15.062,-12.719L12.156,-18.359L31.234,-28.984C29.898,-30.328 28.629,-31.281 27.422,-31.844C26.211,-32.406 24.562,-32.688 22.469,-32.688C20.582,-32.688 18.875,-32.363 17.344,-31.719C15.82,-31.07 14.492,-30.16 13.359,-28.984C12.234,-27.805 11.363,-26.395 10.75,-24.75C10.133,-23.113 9.828,-21.305 9.828,-19.328C9.828,-17.336 10.133,-15.523 10.75,-13.891C11.363,-12.254 12.234,-10.844 13.359,-9.656C14.492,-8.477 15.82,-7.566 17.344,-6.922C18.875,-6.273 20.582,-5.953 22.469,-5.953C26.164,-5.953 29.02,-6.906 31.031,-8.812C33.051,-10.719 34.516,-13.789 35.422,-18.031L42.594,-17.156C42.32,-14.469 41.633,-12.008 40.531,-9.781C39.438,-7.551 37.988,-5.656 36.188,-4.094C34.395,-2.539 32.328,-1.332 29.984,-0.469C27.648,0.383 25.145,0.812 22.469,0.812C19.727,0.812 17.133,0.301 14.688,-0.719C12.25,-1.738 10.129,-3.133 8.328,-4.906C6.535,-6.676 5.102,-8.797 4.031,-11.266C2.957,-13.734 2.422,-16.422 2.422,-19.328C2.422,-22.273 2.969,-24.984 4.062,-27.453C5.164,-29.922 6.629,-32.039 8.453,-33.812C10.273,-35.582 12.395,-36.961 14.812,-37.953C17.227,-38.953 19.781,-39.453 22.469,-39.453C27.031,-39.453 30.828,-38.348 33.859,-36.141C36.891,-33.941 39.316,-30.969 41.141,-27.219L15.062,-12.719Z" style="fill-rule:nonzero;"/>
                        </g>
                    </g>
                </g>
                <g transform="matrix(1,0,0,1,-3.995059,-0.484375)">
                    <g transform="matrix(1,0,0,1,278.073804,57.799542)">
                        <g>
                            <path d="M15.938,-4.266C15.938,-2.922 15.469,-1.789 14.531,-0.875C13.594,0.027 12.477,0.484 11.188,0.484C9.906,0.484 8.789,0.027 7.844,-0.875C6.906,-1.789 6.438,-2.922 6.438,-4.266C6.438,-5.609 6.906,-6.734 7.844,-7.641C8.789,-8.555 9.906,-9.016 11.188,-9.016C12.477,-9.016 13.594,-8.555 14.531,-7.641C15.469,-6.734 15.938,-5.609 15.938,-4.266Z" style="fill:rgb(252,76,0);fill-rule:nonzero;"/>
                        </g>
                    </g>
                </g>
            </g>
            <g transform="matrix(0.162388,0,0,0.158434,-22.637359,-125.669758)">
                <ellipse cx="790.908" cy="870.803" rx="21.938" ry="22.486" style="fill:rgb(252,76,0);"/>
            </g>
        </g>
    </g>
</svg>
