<svg xmlns="http://www.w3.org/2000/svg" xmlns:xlink="http://www.w3.org/1999/xlink" width="1807" zoomAndPan="magnify" viewBox="0 0 1355.25 727.499983" height="970" preserveAspectRatio="xMidYMid meet" version="1.0"><defs><g/><clipPath id="3441603847"><rect x="0" width="1105" y="0" height="398"/></clipPath><clipPath id="be3cc1d07c"><path d="M 375.382812 182.867188 L 428.425781 182.867188 L 428.425781 235.910156 L 375.382812 235.910156 Z M 375.382812 182.867188 " clip-rule="nonzero"/></clipPath><clipPath id="bab78f4090"><path d="M 401.902344 182.867188 C 387.257812 182.867188 375.382812 194.738281 375.382812 209.386719 C 375.382812 224.035156 387.257812 235.910156 401.902344 235.910156 C 416.550781 235.910156 428.425781 224.035156 428.425781 209.386719 C 428.425781 194.738281 416.550781 182.867188 401.902344 182.867188 Z M 401.902344 182.867188 " clip-rule="nonzero"/></clipPath><clipPath id="498b31e1c7"><path d="M 0.382812 0.867188 L 53.425781 0.867188 L 53.425781 53.910156 L 0.382812 53.910156 Z M 0.382812 0.867188 " clip-rule="nonzero"/></clipPath><clipPath id="ced601d96a"><path d="M 26.902344 0.867188 C 12.257812 0.867188 0.382812 12.738281 0.382812 27.386719 C 0.382812 42.035156 12.257812 53.910156 26.902344 53.910156 C 41.550781 53.910156 53.425781 42.035156 53.425781 27.386719 C 53.425781 12.738281 41.550781 0.867188 26.902344 0.867188 Z M 26.902344 0.867188 " clip-rule="nonzero"/></clipPath><clipPath id="f9fc1c3db7"><rect x="0" width="54" y="0" height="54"/></clipPath><clipPath id="cd763e760d"><path d="M 1245.265625 407.636719 L 1280.753906 407.636719 L 1280.753906 441.160156 L 1245.265625 441.160156 Z M 1245.265625 407.636719 " clip-rule="nonzero"/></clipPath><clipPath id="534469dddb"><path d="M 0.265625 0.636719 L 35.753906 0.636719 L 35.753906 34.160156 L 0.265625 34.160156 Z M 0.265625 0.636719 " clip-rule="nonzero"/></clipPath><clipPath id="d3011055cc"><rect x="0" width="36" y="0" height="35"/></clipPath></defs><g transform="matrix(1, 0, 0, 1, 125, 164)"><g clip-path="url(#3441603847)"><g fill="#ffffff" fill-opacity="1"><g transform="translate(0.055093, 277.55263)"><g><path d="M 210.59375 -90.59375 C 210.59375 -77.351562 208.078125 -64.96875 203.046875 -53.4375 C 198.015625 -41.914062 191.320312 -31.914062 182.96875 -23.4375 C 174.625 -14.96875 164.890625 -8.28125 153.765625 -3.375 C 142.640625 1.519531 130.988281 3.96875 118.8125 3.96875 C 109.269531 3.96875 99.992188 2.90625 90.984375 0.78125 C 81.984375 -1.332031 73.242188 -4.769531 64.765625 -9.53125 L 64.765625 -46.09375 C 71.117188 -41.59375 78.734375 -37.6875 87.609375 -34.375 C 96.484375 -31.0625 104.894531 -29.40625 112.84375 -29.40625 C 131.914062 -29.40625 147.144531 -35.363281 158.53125 -47.28125 C 169.925781 -59.207031 175.625 -75.101562 175.625 -94.96875 C 175.625 -104.5 174.097656 -113.300781 171.046875 -121.375 C 168.003906 -129.457031 163.703125 -136.476562 158.140625 -142.4375 C 152.578125 -148.40625 145.890625 -153.046875 138.078125 -156.359375 C 130.265625 -159.671875 121.585938 -161.328125 112.046875 -161.328125 C 102.773438 -161.328125 94.363281 -159.535156 86.8125 -155.953125 C 79.269531 -152.378906 72.847656 -147.28125 67.546875 -140.65625 C 62.242188 -134.03125 58.132812 -126.015625 55.21875 -116.609375 C 52.3125 -107.210938 50.859375 -96.816406 50.859375 -85.421875 L 50.859375 85.828125 L 15.890625 85.828125 L 15.890625 -91.390625 C 15.890625 -105.960938 18.207031 -119.535156 22.84375 -132.109375 C 27.476562 -144.691406 33.96875 -155.617188 42.3125 -164.890625 C 50.65625 -174.160156 60.722656 -181.445312 72.515625 -186.75 C 84.304688 -192.050781 97.484375 -194.703125 112.046875 -194.703125 C 127.148438 -194.703125 140.789062 -191.984375 152.96875 -186.546875 C 165.15625 -181.117188 175.550781 -173.703125 184.15625 -164.296875 C 192.769531 -154.898438 199.328125 -143.84375 203.828125 -131.125 C 208.335938 -118.40625 210.59375 -104.894531 210.59375 -90.59375 Z M 210.59375 -90.59375 "/></g></g></g><g fill="#ffffff" fill-opacity="1"><g transform="translate(220.975533, 277.55263)"><g><path d="M 76.296875 -233.234375 C 76.296875 -227.941406 74.503906 -223.109375 70.921875 -218.734375 C 67.347656 -214.367188 62.117188 -212.1875 55.234375 -212.1875 C 48.347656 -212.1875 43.113281 -214.367188 39.53125 -218.734375 C 35.957031 -223.109375 34.171875 -227.941406 34.171875 -233.234375 C 34.171875 -238.535156 35.957031 -243.367188 39.53125 -247.734375 C 43.113281 -252.109375 48.347656 -254.296875 55.234375 -254.296875 C 62.117188 -254.296875 67.347656 -252.109375 70.921875 -247.734375 C 74.503906 -243.367188 76.296875 -238.535156 76.296875 -233.234375 Z M 72.71875 -190.71875 L 72.71875 0 L 37.75 0 L 37.75 -190.71875 Z M 72.71875 -190.71875 "/></g></g></g><g fill="#ffffff" fill-opacity="1"><g transform="translate(331.4358, 277.55263)"><g><path d="M 2.78125 -190.71875 C 19.46875 -189.664062 34.234375 -185.296875 47.078125 -177.609375 C 59.929688 -169.929688 69.929688 -158.410156 77.078125 -143.046875 C 79.460938 -150.191406 83.101562 -156.675781 88 -162.5 C 92.90625 -168.332031 98.671875 -173.300781 105.296875 -177.40625 C 111.921875 -181.519531 119.203125 -184.765625 127.140625 -187.140625 C 135.085938 -189.523438 143.300781 -190.71875 151.78125 -190.71875 L 151.78125 -157.34375 C 143.039062 -156.8125 135.160156 -154.757812 128.140625 -151.1875 C 121.117188 -147.613281 115.15625 -142.976562 110.25 -137.28125 C 105.351562 -131.582031 101.582031 -125.15625 98.9375 -118 C 96.289062 -110.851562 94.96875 -103.304688 94.96875 -95.359375 C 94.96875 -87.410156 96.359375 -79.726562 99.140625 -72.3125 C 101.921875 -64.894531 105.757812 -58.40625 110.65625 -52.84375 C 115.5625 -47.28125 121.519531 -42.710938 128.53125 -39.140625 C 135.550781 -35.566406 143.300781 -33.644531 151.78125 -33.375 L 151.78125 0 C 135.625 0 121.1875 -3.835938 108.46875 -11.515625 C 95.757812 -19.203125 85.296875 -30.195312 77.078125 -44.5 C 69.398438 -30.195312 59.46875 -19.203125 47.28125 -11.515625 C 35.09375 -3.835938 20.257812 0 2.78125 0 L 2.78125 -33.375 C 11.519531 -33.644531 19.398438 -35.566406 26.421875 -39.140625 C 33.441406 -42.710938 39.398438 -47.347656 44.296875 -53.046875 C 49.203125 -58.742188 53.046875 -65.234375 55.828125 -72.515625 C 58.609375 -79.796875 60 -87.410156 60 -95.359375 C 60 -103.304688 58.609375 -110.921875 55.828125 -118.203125 C 53.046875 -125.492188 49.140625 -131.984375 44.109375 -137.671875 C 39.078125 -143.367188 33.050781 -147.9375 26.03125 -151.375 C 19.007812 -154.820312 11.257812 -156.8125 2.78125 -157.34375 Z M 2.78125 -190.71875 "/></g></g></g><g fill="#ffffff" fill-opacity="1"><g transform="translate(486.000596, 277.55263)"><g><path d="M 146.21875 -190.71875 L 146.21875 -157.34375 L 118.40625 -157.34375 C 109.925781 -157.34375 101.84375 -155.953125 94.15625 -153.171875 C 86.476562 -150.390625 79.59375 -146.347656 73.5 -141.046875 C 67.414062 -135.753906 62.582031 -129.265625 59 -121.578125 C 55.425781 -113.898438 53.640625 -105.160156 53.640625 -95.359375 C 53.640625 -85.828125 55.359375 -77.21875 58.796875 -69.53125 C 62.242188 -61.851562 66.945312 -55.363281 72.90625 -50.0625 C 78.875 -44.769531 85.765625 -40.664062 93.578125 -37.75 C 101.390625 -34.832031 109.535156 -33.375 118.015625 -33.375 L 146.21875 -33.375 L 146.21875 0 L 112.453125 0 C 100.523438 0 88.800781 -2.25 77.28125 -6.75 C 65.757812 -11.257812 55.5625 -17.6875 46.6875 -26.03125 C 37.8125 -34.375 30.65625 -44.4375 25.21875 -56.21875 C 19.789062 -68.007812 17.078125 -81.054688 17.078125 -95.359375 C 17.078125 -109.929688 19.859375 -123.109375 25.421875 -134.890625 C 30.992188 -146.679688 38.28125 -156.679688 47.28125 -164.890625 C 56.289062 -173.109375 66.488281 -179.46875 77.875 -183.96875 C 89.269531 -188.46875 100.796875 -190.71875 112.453125 -190.71875 Z M 146.21875 -190.71875 "/></g></g></g><g fill="#ffffff" fill-opacity="1"><g transform="translate(640.565446, 277.55263)"><g><path d="M 74.296875 -62.78125 L 60 -90.59375 L 154.171875 -143.046875 C 147.546875 -149.671875 141.253906 -154.375 135.296875 -157.15625 C 129.335938 -159.9375 121.191406 -161.328125 110.859375 -161.328125 C 101.585938 -161.328125 93.175781 -159.734375 85.625 -156.546875 C 78.070312 -153.367188 71.515625 -148.863281 65.953125 -143.03125 C 60.390625 -137.207031 56.082031 -130.253906 53.03125 -122.171875 C 49.988281 -114.097656 48.46875 -105.160156 48.46875 -95.359375 C 48.46875 -85.554688 49.988281 -76.613281 53.03125 -68.53125 C 56.082031 -60.457031 60.390625 -53.503906 65.953125 -47.671875 C 71.515625 -41.847656 78.070312 -37.347656 85.625 -34.171875 C 93.175781 -30.992188 101.585938 -29.40625 110.859375 -29.40625 C 129.140625 -29.40625 143.242188 -34.101562 153.171875 -43.5 C 163.109375 -52.90625 170.328125 -68.070312 174.828125 -89 L 210.1875 -84.640625 C 208.863281 -71.390625 205.488281 -59.265625 200.0625 -48.265625 C 194.632812 -37.273438 187.484375 -27.9375 178.609375 -20.25 C 169.734375 -12.570312 159.53125 -6.613281 148 -2.375 C 136.476562 1.851562 124.097656 3.96875 110.859375 3.96875 C 97.347656 3.96875 84.566406 1.449219 72.515625 -3.578125 C 60.460938 -8.609375 50 -15.492188 41.125 -24.234375 C 32.25 -32.972656 25.160156 -43.4375 19.859375 -55.625 C 14.566406 -67.8125 11.921875 -81.054688 11.921875 -95.359375 C 11.921875 -109.929688 14.632812 -123.304688 20.0625 -135.484375 C 25.5 -147.671875 32.71875 -158.132812 41.71875 -166.875 C 50.726562 -175.625 61.191406 -182.445312 73.109375 -187.34375 C 85.023438 -192.25 97.609375 -194.703125 110.859375 -194.703125 C 133.378906 -194.703125 152.117188 -189.269531 167.078125 -178.40625 C 182.046875 -167.539062 194.035156 -152.835938 203.046875 -134.296875 Z M 74.296875 -62.78125 "/></g></g></g><g fill="#ffffff" fill-opacity="1"><g transform="translate(861.485841, 277.55263)"><g><path d="M 111.25 -161.328125 L 106.890625 -161.328125 C 70.597656 -161.328125 52.453125 -137.617188 52.453125 -90.203125 L 52.453125 0 L 17.484375 0 L 17.484375 -190.71875 L 50.859375 -190.71875 L 50.859375 -168.875 L 51.65625 -168.875 C 58.007812 -177.875 65.023438 -184.425781 72.703125 -188.53125 C 80.390625 -192.644531 91.253906 -194.703125 105.296875 -194.703125 L 111.25 -194.703125 Z M 111.25 -161.328125 "/></g></g></g><g fill="#ffffff" fill-opacity="1"><g transform="translate(971.946095, 277.55263)"><g><path d="M 58.40625 -238.40625 L 58.40625 -190.71875 L 126.75 -190.71875 L 126.75 -157.34375 L 58.40625 -157.34375 L 58.40625 -56.03125 C 58.40625 -47.8125 60.523438 -41.976562 64.765625 -38.53125 C 69.003906 -35.09375 75.226562 -33.375 83.4375 -33.375 L 126.75 -33.375 L 126.75 0 L 78.671875 0 C 61.191406 0 47.613281 -5.492188 37.9375 -16.484375 C 28.269531 -27.484375 23.4375 -42.117188 23.4375 -60.390625 L 23.4375 -238.40625 Z M 58.40625 -238.40625 "/></g></g></g></g></g><g clip-path="url(#be3cc1d07c)"><g clip-path="url(#bab78f4090)"><g transform="matrix(1, 0, 0, 1, 375, 182)"><g clip-path="url(#f9fc1c3db7)"><g clip-path="url(#498b31e1c7)"><g clip-path="url(#ced601d96a)"><path fill="#fc4c00" d="M 0.382812 0.867188 L 53.425781 0.867188 L 53.425781 53.910156 L 0.382812 53.910156 Z M 0.382812 0.867188 " fill-opacity="1" fill-rule="nonzero"/></g></g></g></g></g></g><g clip-path="url(#cd763e760d)"><g transform="matrix(1, 0, 0, 1, 1245, 407)"><g clip-path="url(#d3011055cc)"><g clip-path="url(#534469dddb)"><path fill="#fc4c00" d="M 0.265625 0.636719 L 35.753906 0.636719 L 35.753906 34.160156 L 0.265625 34.160156 Z M 0.265625 0.636719 " fill-opacity="1" fill-rule="nonzero"/></g></g></g></g></svg>