<svg xmlns="http://www.w3.org/2000/svg" xmlns:xlink="http://www.w3.org/1999/xlink" width="479" zoomAndPan="magnify" viewBox="0 0 359.25 587.999988" height="784" preserveAspectRatio="xMidYMid meet" version="1.0"><defs><clipPath id="9edf8e9eca"><path d="M 0 0.613281 L 358.5 0.613281 L 358.5 587.386719 L 0 587.386719 Z M 0 0.613281 " clip-rule="nonzero"/></clipPath><clipPath id="4fd1bacf5d"><path d="M 0 173 L 358.402344 173 L 358.402344 586.34375 L 0 586.34375 Z M 0 173 " clip-rule="nonzero"/></clipPath><clipPath id="f6538ed5f7"><path d="M 0 0.613281 L 358.402344 0.613281 L 358.402344 346 L 0 346 Z M 0 0.613281 " clip-rule="nonzero"/></clipPath><clipPath id="ab869d8a3e"><path d="M 215.160156 443.71875 L 358.417969 443.71875 L 358.417969 586.980469 L 215.160156 586.980469 Z M 215.160156 443.71875 " clip-rule="nonzero"/></clipPath><clipPath id="805c230b8f"><path d="M 286.789062 443.71875 C 247.226562 443.71875 215.160156 475.789062 215.160156 515.347656 C 215.160156 554.910156 247.226562 586.980469 286.789062 586.980469 C 326.347656 586.980469 358.417969 554.910156 358.417969 515.347656 C 358.417969 475.789062 326.347656 443.71875 286.789062 443.71875 Z M 286.789062 443.71875 " clip-rule="nonzero"/></clipPath><clipPath id="3797bd1b63"><path d="M 0.160156 0.71875 L 143.417969 0.71875 L 143.417969 143.980469 L 0.160156 143.980469 Z M 0.160156 0.71875 " clip-rule="nonzero"/></clipPath><clipPath id="b1c6db1a00"><path d="M 71.789062 0.71875 C 32.226562 0.71875 0.160156 32.789062 0.160156 72.347656 C 0.160156 111.910156 32.226562 143.980469 71.789062 143.980469 C 111.347656 143.980469 143.417969 111.910156 143.417969 72.347656 C 143.417969 32.789062 111.347656 0.71875 71.789062 0.71875 Z M 71.789062 0.71875 " clip-rule="nonzero"/></clipPath><clipPath id="8ce944826f"><rect x="0" width="144" y="0" height="144"/></clipPath><clipPath id="2fea1c3e5e"><rect x="0" width="359" y="0" height="588"/></clipPath></defs><g clip-path="url(#9edf8e9eca)"><g transform="matrix(1, 0, 0, 1, 0, 0.000000000000078493)"><g clip-path="url(#2fea1c3e5e)"><g clip-path="url(#4fd1bacf5d)"><path fill="#ffffff" d="M 119.511719 586.890625 L 119.511719 448.9375 L 358.453125 310.984375 L 358.453125 173.03125 L 0.0351562 379.960938 L 0.0351562 517.914062 Z M 119.511719 586.890625 " fill-opacity="1" fill-rule="evenodd"/></g><g clip-path="url(#f6538ed5f7)"><path fill="#ffffff" d="M 119.511719 0.585938 L 358.453125 138.539062 L 358.453125 276.492188 L 311.015625 249.105469 L 119.511719 138.539062 L 119.511719 276.492188 L 0.0351562 345.476562 L 0.0351562 69.5625 Z M 119.511719 0.585938 " fill-opacity="1" fill-rule="evenodd"/></g><g clip-path="url(#ab869d8a3e)"><g clip-path="url(#805c230b8f)"><g transform="matrix(1, 0, 0, 1, 215, 443)"><g clip-path="url(#8ce944826f)"><g clip-path="url(#3797bd1b63)"><g clip-path="url(#b1c6db1a00)"><path fill="#fc4c00" d="M 0.160156 0.71875 L 143.417969 0.71875 L 143.417969 143.980469 L 0.160156 143.980469 Z M 0.160156 0.71875 " fill-opacity="1" fill-rule="nonzero"/></g></g></g></g></g></g></g></g></g></svg>